<svg height="64" viewBox="0 0 64 64" width="64" xmlns="http://www.w3.org/2000/svg" xmlns:xlink="http://www.w3.org/1999/xlink"><defs><filter id="a" height="109.3%" width="111.1%" x="-2.8%" y="-2.8%"><feOffset dx="3" dy="2" in="SourceAlpha" result="shadowOffsetOuter1"/><feColorMatrix in="shadowOffsetOuter1" values="0 0 0 0 0 0 0 0 0 0 0 0 0 0 0 0 0 0 1 0"/></filter><rect id="b" height="64" rx="8" width="64"/><path id="c" d="m323.063595 37.3841091c4.287886 1.7515034 6.801298 4.2649747 8.552248 8.5529618 1.463558 3.5848288 2.394517 8.4072162 3.384285 15.0629291.989512-6.6557129 1.920727-11.4781003 3.384285-15.0629291 1.75095-4.2879871 4.264362-6.8014584 8.551992-8.5529618 3.584232-1.4625693 8.408295-2.3958521 15.063595-3.3853876-6.6553-.9895355-11.479363-1.9202613-15.063595-3.3828306-4.28763-1.7515034-6.801042-4.2649747-8.551992-8.5529618-1.463558-3.5848288-2.394773-8.4072162-3.384285-15.0629291-.989768 6.6557129-1.920727 11.4781003-3.384285 15.0629291-1.75095 4.2879871-4.264362 6.8014584-8.552248 8.5529618-3.584232 1.4625693-8.40804 2.3932951-15.063595 3.3828306 6.655555.9895355 11.479363 1.9228183 15.063595 3.3853876"/><mask id="d" fill="#fff"><use fill="#fff" fill-rule="evenodd" xlink:href="#b"/></mask></defs><g fill="none" fill-rule="evenodd"><use fill="#000" xlink:href="#b"/><g mask="url(#d)"><g transform="translate(-303 -2)"><g stroke="#00ff58" stroke-linecap="round" stroke-linejoin="round"><path d="m317.685 11.75v179"/><path d="m341.968 14.5v166"/><path d="m0 51h355.487"/><path d="m18.525 27.5h343.471"/></g><g fill-rule="nonzero"><use fill="#000" filter="url(#a)" xlink:href="#c"/><use fill="#df30f7" xlink:href="#c"/></g></g></g></g></svg>