<svg xmlns="http://www.w3.org/2000/svg" xmlns:xlink="http://www.w3.org/1999/xlink" width="64" height="64" viewBox="0 0 64 64"><defs><filter id="d" width="111.1%" height="109.3%" x="-2.8%" y="-2.8%" filterUnits="objectBoundingBox"><feOffset dx="3" dy="2" in="SourceAlpha" result="shadowOffsetOuter1"/><feColorMatrix in="shadowOffsetOuter1" values="0 0 0 0 0 0 0 0 0 0 0 0 0 0 0 0 0 0 1 0"/></filter><rect id="a" width="64" height="64" x="0" y="0" rx="8"/><path id="c" d="M323.063595,37.3841091 C327.351481,39.1356125 329.864893,41.6490838 331.615843,45.9370709 C333.079401,49.5218997 334.01036,54.3442871 335.000128,61 C335.98964,54.3442871 336.920855,49.5218997 338.384413,45.9370709 C340.135363,41.6490838 342.648775,39.1356125 346.936405,37.3841091 C350.520637,35.9215398 355.3447,34.988257 362,33.9987215 C355.3447,33.009186 350.520637,32.0784602 346.936405,30.6158909 C342.648775,28.8643875 340.135363,26.3509162 338.384413,22.0629291 C336.920855,18.4781003 335.98964,13.6557129 335.000128,7 C334.01036,13.6557129 333.079401,18.4781003 331.615843,22.0629291 C329.864893,26.3509162 327.351481,28.8643875 323.063595,30.6158909 C319.479363,32.0784602 314.655555,33.009186 308,33.9987215 C314.655555,34.988257 319.479363,35.9215398 323.063595,37.3841091"/></defs><g fill="none" fill-rule="evenodd"><mask id="b" fill="#fff"><use xlink:href="#a"/></mask><use xlink:href="#a" fill="#000"/><g mask="url(#b)"><g transform="translate(-303 -2)"><g stroke-linecap="round" stroke-linejoin="round"><line x1="317.685" x2="317.685" y1="11.75" y2="190.75" stroke="#7C00FF"/><line x1="341.968" x2="341.968" y1="14.5" y2="180.5" stroke="#7C00FF"/><line x2="355.487" y1="51" y2="51" stroke="#7C00FF"/><line x1="18.525" x2="361.996" y1="27.5" y2="27.5" stroke="#7C00FF"/></g><g fill-rule="nonzero"><use xlink:href="#c" fill="#000" filter="url(#d)"/><use xlink:href="#c" fill="#F7E330"/></g></g></g></g></svg>